<?xml version="1.0" encoding="UTF-8"?>
<svg id="Layer_2" data-name="Layer 2" xmlns="http://www.w3.org/2000/svg" viewBox="0 0 1032.77 301.13">
  <defs>
    <style>
      .cls-1 {
        fill: #000;
        stroke-width: 0px;
      }
    </style>
  </defs>
  <g id="Layer_1-2" data-name="Layer 1">
    <path class="cls-1" d="M721.9,295.7h-58.61v-118.85c0-28.49-15.47-40.7-35.41-40.7-17.91,0-35,4.89-45.59,17.91.81,4.48,1.22,9.77,1.22,14.65v126.99h-58.61v-120.48c0-27.27-15.47-39.07-35.41-39.07-18.32,0-35.41,8.96-45.18,21.98v137.57h-58.61V92.19h58.61v17.5l2.44.81c12.62-13.02,32.56-22.39,57.39-22.39,26.46,0,50.06,10.18,64.72,30.53,17.5-19.13,42.33-30.53,73.67-30.53,44.77,0,79.37,29.71,79.37,88.73v118.85Z"/>
    <path class="cls-1" d="M814.24,216.13l-16.28,15.47v65.53h-58.61V0h58.61v165.25l2.44.81,63.9-72.45h72.04l.81,2.44-83.85,81.81,97.28,117.22-.81,2.03h-71.23l-64.31-81Z"/>
    <path class="cls-1" d="M1000.21,232.41c18.72,0,32.56,15.47,32.56,32.56s-13.84,32.15-32.56,32.15c-17.09,0-32.15-15.06-32.15-32.15,0-18.32,15.06-32.56,32.15-32.56Z"/>
    <rect class="cls-1" x="17.31" y="162.61" width="203.51" height="58.61" transform="translate(-89.98 277.38) rotate(-80.42)"/>
    <path class="cls-1" d="M307.59,107.38l2.04-1.22v-12.62h58.61v203.51h-58.61v-19.54l-2.44-.81c-12.62,14.24-33.78,24.42-59.83,24.42-54.95,0-98.09-46.81-98.09-105.83s44.77-105.83,102.16-105.83c25.64,0,43.14,7.33,56.17,17.91ZM309.63,225.42v-74.08c-12.62-8.55-30.12-13.84-50.88-13.84-28.08,0-50.88,24.02-50.88,57.8s22.79,57.8,50.88,57.8c20.76,0,40.29-7.33,50.88-27.68Z"/>
    <path class="cls-1" d="M58.61,231.6v65.53H0V0h58.61v165.25"/>
    <path class="cls-1" d="M185.78,43.03c18.72,0,32.56,15.47,32.56,32.56s-13.84,32.15-32.56,32.15c-17.09,0-32.15-15.06-32.15-32.15,0-18.32,15.06-32.56,32.15-32.56Z"/>
  </g>
</svg>